<svg xmlns="http://www.w3.org/2000/svg" width="39.022" height="36.077" viewBox="0 0 39.022 36.077">
  <path id="s_team" d="M-3284.44,149.062a31.452,31.452,0,0,1,.275-3.661,1.452,1.452,0,0,1,.784-1.056c1.363-.679,4.353-1.683,4.353-1.683v-.988l-.084-.062a2.858,2.858,0,0,1-1.084-1.816l-.017-.105h-.081a1.1,1.1,0,0,1-1.021-.687,1.2,1.2,0,0,1-.15-.582,1.12,1.12,0,0,1,.078-.41.572.572,0,0,1,.222-.356l.275-.167-.068-.3a3.467,3.467,0,0,1,3.445-4.183c.055,0,.109,0,.163,0s.109,0,.164,0a3.467,3.467,0,0,1,3.445,4.183l-.069.3.275.167a.574.574,0,0,1,.221.356,1.1,1.1,0,0,1,.079.41,1.2,1.2,0,0,1-.151.582,1.1,1.1,0,0,1-1.021.687h-.081l-.016.105a2.856,2.856,0,0,1-1.085,1.816l-.083.062v.988s2.991,1,4.353,1.683a1.453,1.453,0,0,1,.784,1.056,31.56,31.56,0,0,1,.275,3.662Zm-24.841,0a31.292,31.292,0,0,1,.275-3.662,1.452,1.452,0,0,1,.784-1.056c1.363-.679,4.354-1.683,4.354-1.683v-.988l-.083-.062a2.86,2.86,0,0,1-1.085-1.816l-.016-.105h-.081a1.1,1.1,0,0,1-1.022-.687,1.2,1.2,0,0,1-.15-.582,1.1,1.1,0,0,1,.078-.41.573.573,0,0,1,.221-.356l.275-.167-.068-.3a3.468,3.468,0,0,1,3.445-4.183c.055,0,.11,0,.164,0s.108,0,.163,0a3.467,3.467,0,0,1,3.445,4.183l-.069.3.276.167a.574.574,0,0,1,.221.356,1.12,1.12,0,0,1,.078.41,1.2,1.2,0,0,1-.15.582,1.1,1.1,0,0,1-1.021.687h-.081l-.017.105a2.858,2.858,0,0,1-1.084,1.816l-.084.062v.988s2.991,1,4.353,1.683a1.453,1.453,0,0,1,.784,1.056,31.56,31.56,0,0,1,.275,3.662Zm22.9-9.391-3.323-1.92-3.323,1.919a.9.9,0,0,1-.441.118.884.884,0,0,1-.771-.439.894.894,0,0,1,.322-1.213l3.323-1.92v-3.838a.889.889,0,0,1,.889-.888.9.9,0,0,1,.888.884v3.842l3.323,1.919a.879.879,0,0,1,.411.54.88.88,0,0,1-.088.673.891.891,0,0,1-.77.441A.89.89,0,0,1-3286.383,139.671Zm-10.468-10.627a31.805,31.805,0,0,1,.274-3.662,1.454,1.454,0,0,1,.784-1.055c1.363-.68,4.353-1.684,4.353-1.684v-.987l-.083-.063a2.854,2.854,0,0,1-1.084-1.815l-.017-.105h-.081a1.1,1.1,0,0,1-1.021-.688,1.2,1.2,0,0,1-.15-.581,1.1,1.1,0,0,1,.078-.41.571.571,0,0,1,.221-.356l.276-.167-.068-.3a3.467,3.467,0,0,1,3.444-4.184h.328a3.469,3.469,0,0,1,3.445,4.184l-.069.3.276.167a.571.571,0,0,1,.221.356,1.1,1.1,0,0,1,.078.41,1.2,1.2,0,0,1-.15.581,1.1,1.1,0,0,1-1.021.688h-.081l-.016.105a2.856,2.856,0,0,1-1.085,1.815l-.083.063v.987s2.991,1,4.354,1.684a1.453,1.453,0,0,1,.784,1.055,31.751,31.751,0,0,1,.275,3.662Z" transform="translate(3309.281 -112.985)" fill="#c0c5d9"/>
</svg>
