<svg xmlns="http://www.w3.org/2000/svg" width="3.792" height="18.022" viewBox="0 0 3.792 18.022">
  <path id="ic_dots_menu" d="M-4013.374,63.311a1.616,1.616,0,0,1,1.647-1.646,1.616,1.616,0,0,1,1.646,1.646,1.617,1.617,0,0,1-1.646,1.647A1.617,1.617,0,0,1-4013.374,63.311Zm0-7.114a1.617,1.617,0,0,1,1.647-1.647,1.617,1.617,0,0,1,1.646,1.647,1.617,1.617,0,0,1-1.646,1.647A1.617,1.617,0,0,1-4013.374,56.2Zm0-7.114a1.617,1.617,0,0,1,1.647-1.647,1.617,1.617,0,0,1,1.646,1.647,1.616,1.616,0,0,1-1.646,1.646A1.616,1.616,0,0,1-4013.374,49.083Z" transform="translate(4013.624 -47.186)" fill="#a0a4b7" stroke="#a0a4b7" stroke-width="0.5"/>
</svg>
