<svg xmlns="http://www.w3.org/2000/svg" width="26.625" height="30.346" viewBox="0 0 26.625 30.346">
  <path id="ic_pdf" d="M20.756,30.346v0H20.47V28.2h0v-.287h.286v0h1.861v0a1.574,1.574,0,0,0,1.574-1.574V8.947H20.756a3.078,3.078,0,0,1-3.078-3.078V2.434H7.73A1.574,1.574,0,0,0,6.155,4.008h0V21.042H4.008v0H3.722V4.008A4.008,4.008,0,0,1,7.73,0V0H18.083l.085.084-.2.2.2-.2,8.374,8.374.084.085V8.66h0V26.339h0a4.008,4.008,0,0,1-4.008,4.008Zm-5.776-.281H13.508v0h-.286V22.338h0v-.287h.286v0h5.029v.287h0v1.5H15.266v1.5h2.988v.286h0v1.475H15.266v2.96ZM14.98,26.819ZM14.98,23.553ZM9.257,29.779v.286H6.543v0H6.257V22.338h0v-.287h.286v0H9.257a3.908,3.908,0,0,1,2.016.476,2.94,2.94,0,0,1,1.212,1.4h0a5.241,5.241,0,0,1,.39,2.117,5.325,5.325,0,0,1-.39,2.131,2.984,2.984,0,0,1-1.222,1.413h0a3.846,3.846,0,0,1-2.006.482Zm1.859-.441h0Zm-2.056-1.05a2.128,2.128,0,0,0,.794-.132h0a1.2,1.2,0,0,0,.5-.378,1.844,1.844,0,0,0,.314-.68v0a4.009,4.009,0,0,0,.115-1.027h0a3.619,3.619,0,0,0-.2-1.3l.266-.1h0l-.02.007-.247.1v0a1.374,1.374,0,0,0-.545-.7l.154-.242h0l-.153.242h0a1.782,1.782,0,0,0-.979-.239v0H8.3v4.465ZM10.356,27.778Zm.591-.61-.276-.074.247.067Zm1.276-3.129.025-.011-.026.011ZM8.015,23.537ZM1.759,30.065H.286v0H0V22.338H0v-.287H.286v0H3.263v0a2.9,2.9,0,0,1,1.507.372h0a2.479,2.479,0,0,1,.966,1,2.96,2.96,0,0,1,.327,1.392,2.909,2.909,0,0,1-.333,1.393h0a2.476,2.476,0,0,1-.971,1h0l-.11-.193.11.193a2.983,2.983,0,0,1-1.506.36v0H2.045v2.5ZM1.759,27.283Zm1.918-1.308h0l-.012-.023Zm-.7-.134a1.2,1.2,0,0,0,.56-.117h0a.782.782,0,0,0,.326-.329l.253.134L4.06,25.5l-.195-.1v0a1.2,1.2,0,0,0,.124-.573,1.019,1.019,0,0,0-.258-.767l.2-.2-.2.2A1.018,1.018,0,0,0,2.98,23.8v0H2.039V25.84ZM1.753,23.51Z" fill="#afa9a3"/>
</svg>
