<svg xmlns="http://www.w3.org/2000/svg" xmlns:xlink="http://www.w3.org/1999/xlink" width="24" height="24" viewBox="0 0 24 24">
  <defs>
    <clipPath id="clip-path">
      <rect id="Rectangle_38" data-name="Rectangle 38" width="24" height="24" transform="translate(3893 -64)" fill="#afa9a3"/>
    </clipPath>
  </defs>
  <g id="ic_share" transform="translate(-3893 64)" clip-path="url(#clip-path)">
    <path id="ic_share-2" data-name="ic_share" d="M16.866,15.031a2.69,2.69,0,0,0-1.812.713L8.463,11.9a3.033,3.033,0,0,0,.083-.648,3.033,3.033,0,0,0-.083-.648L14.98,6.8a2.771,2.771,0,1,0-.887-2.027,3.033,3.033,0,0,0,.083.648l-6.517,3.8a2.777,2.777,0,1,0,0,4.054l6.582,3.85a2.614,2.614,0,0,0-.074.6,2.7,2.7,0,1,0,2.7-2.7Z" transform="translate(3893.565 -63.015)" fill="#afa9a3" fill-rule="evenodd"/>
  </g>
</svg>
