<svg xmlns="http://www.w3.org/2000/svg" width="64" height="91" viewBox="0 0 64 91">
  <g id="ic_upload_file" transform="translate(-862 -647)">
    <g id="ic_upload_file-2" data-name="ic_upload_file" transform="translate(-2 -5)">
      <circle id="Ellipse_5" data-name="Ellipse 5" cx="32" cy="32" r="32" transform="translate(864 652)" fill="#f09937"/>
      <g id="_8563601801543238914_1_" data-name="8563601801543238914 (1)" transform="translate(885.762 673.762)">
        <path id="Line_6" data-name="Line 6" d="M.3,19.786a1.3,1.3,0,0,1-1.3-1.3V.3A1.3,1.3,0,0,1,1.6.3V18.487A1.3,1.3,0,0,1,.3,19.786Z" transform="translate(10.094 1)" fill="#fff"/>
        <path id="Line_7" data-name="Line 7" d="M18.487,1.6H.3A1.3,1.3,0,0,1,.3-1H18.487a1.3,1.3,0,0,1,0,2.6Z" transform="translate(1 10.094)" fill="#fff"/>
      </g>
    </g>
    <text id="Add_File" data-name="Add File" transform="translate(894 733)" fill="#f09937" font-size="14" font-family="Overpass" font-weight="500"><tspan x="-25.908" y="0">Add File</tspan></text>
  </g>
</svg>
