<svg xmlns="http://www.w3.org/2000/svg" width="30" height="30" viewBox="0 0 30 30">
  <g id="ic_team_dropdown" transform="translate(-815 -177)">
    <rect id="Rectangle_35" data-name="Rectangle 35" width="30" height="30" rx="15" transform="translate(815 177)" fill="#e4e7f7"/>
    <g id="Group_31989" data-name="Group 31989" transform="translate(822.507 183.932)">
      <path id="Path_18" data-name="Path 18" d="M11.262,14.674l-1.573.858a1.413,1.413,0,0,0-.252.18,5.267,5.267,0,0,0,6.767.017,1.4,1.4,0,0,0-.277-.186L14.243,14.7a.642.642,0,0,1-.355-.574v-.661a2.544,2.544,0,0,0,.159-.2,3.875,3.875,0,0,0,.523-1.055.529.529,0,0,0,.375-.5V11a.526.526,0,0,0-.176-.391V9.587S14.979,8,12.831,8s-1.939,1.586-1.939,1.586v1.019a.526.526,0,0,0-.176.391V11.7a.529.529,0,0,0,.244.444,3.5,3.5,0,0,0,.638,1.319v.644A.643.643,0,0,1,11.262,14.674Z" transform="translate(-5.327 -8.001)" fill="#a0a4b7"/>
      <path id="Path_19" data-name="Path 19" d="M10.545,12.053l-.955.521a.858.858,0,0,0-.153.109,3.2,3.2,0,0,0,4.11.011.847.847,0,0,0-.168-.113l-1.023-.511a.39.39,0,0,1-.216-.349v-.4a1.544,1.544,0,0,0,.1-.124,2.353,2.353,0,0,0,.318-.641.321.321,0,0,0,.228-.306V9.821a.32.32,0,0,0-.107-.237V8.964S12.8,8,11.5,8s-1.178.963-1.178.963v.619a.319.319,0,0,0-.107.237v.428a.321.321,0,0,0,.148.269,2.125,2.125,0,0,0,.387.8v.391A.39.39,0,0,1,10.545,12.053Z" transform="translate(-9.437 -5.518)" fill="#a0a4b7"/>
      <path id="Path_20" data-name="Path 20" d="M10.545,12.053l-.955.521a.858.858,0,0,0-.153.109,3.2,3.2,0,0,0,4.11.011.847.847,0,0,0-.168-.113l-1.023-.511a.39.39,0,0,1-.216-.349v-.4a1.544,1.544,0,0,0,.1-.124,2.353,2.353,0,0,0,.318-.641.321.321,0,0,0,.228-.306V9.821a.32.32,0,0,0-.107-.237V8.964S12.8,8,11.5,8s-1.178.963-1.178.963v.619a.319.319,0,0,0-.107.237v.428a.321.321,0,0,0,.148.269,2.125,2.125,0,0,0,.387.8v.391A.39.39,0,0,1,10.545,12.053Z" transform="translate(1.44 -5.518)" fill="#a0a4b7"/>
    </g>
    <path id="Path_22" data-name="Path 22" d="M862.462,183.449h6.017l-2.946,4.2Z" transform="translate(-35 14)" fill="#a0a4b7"/>
  </g>
</svg>
