<svg xmlns="http://www.w3.org/2000/svg" xmlns:xlink="http://www.w3.org/1999/xlink" width="45" height="45" viewBox="0 0 45 45">
  <defs>
    <clipPath id="clip-path">
      <rect id="Rectangle_39" data-name="Rectangle 39" width="45" height="45" transform="translate(3938 -49)" fill="#afa9a3"/>
    </clipPath>
  </defs>
  <g id="ic_3_dots" transform="translate(-3938 49)" clip-path="url(#clip-path)">
    <path id="ic_dots_menu" d="M0,34.524a3.721,3.721,0,0,1,3.788-3.788,3.788,3.788,0,0,1,0,7.576A3.721,3.721,0,0,1,0,34.524ZM0,19.156a3.721,3.721,0,0,1,3.788-3.788,3.788,3.788,0,0,1,0,7.575A3.72,3.72,0,0,1,0,19.156ZM0,3.788A3.72,3.72,0,0,1,3.788,0,3.72,3.72,0,0,1,7.575,3.788,3.72,3.72,0,0,1,3.788,7.576,3.721,3.721,0,0,1,0,3.788Z" transform="translate(3956.939 -45.429)" fill="#afa9a3" stroke="#a0a4b7" stroke-width="0.5"/>
  </g>
</svg>
