<svg xmlns="http://www.w3.org/2000/svg" width="74.856" height="17.184" viewBox="0 0 74.856 17.184">
  <path id="logo" d="M1.584,0a.278.278,0,0,1-.2-.084.278.278,0,0,1-.084-.2V-16.512a.278.278,0,0,1,.084-.2.278.278,0,0,1,.2-.084H3.792a.278.278,0,0,1,.2.084.278.278,0,0,1,.084.2V-2.52a.106.106,0,0,0,.12.12H9.384a.278.278,0,0,1,.2.084.278.278,0,0,1,.084.2V-.288a.278.278,0,0,1-.084.2.278.278,0,0,1-.2.084Zm13.9.192a4.518,4.518,0,0,1-3.324-1.248A4.453,4.453,0,0,1,10.9-4.368v-8.064a4.453,4.453,0,0,1,1.26-3.312,4.518,4.518,0,0,1,3.324-1.248,4.559,4.559,0,0,1,3.336,1.248,4.43,4.43,0,0,1,1.272,3.312v8.064a4.43,4.43,0,0,1-1.272,3.312A4.559,4.559,0,0,1,15.48.192Zm0-2.4a1.686,1.686,0,0,0,1.32-.564,2.132,2.132,0,0,0,.5-1.476v-8.3a2.132,2.132,0,0,0-.5-1.476,1.686,1.686,0,0,0-1.32-.564,1.65,1.65,0,0,0-1.308.564,2.164,2.164,0,0,0-.492,1.476v8.3a2.164,2.164,0,0,0,.492,1.476A1.65,1.65,0,0,0,15.48-2.208ZM22.68,0a.278.278,0,0,1-.2-.084.278.278,0,0,1-.084-.2V-16.512a.278.278,0,0,1,.084-.2.278.278,0,0,1,.2-.084h2.208a.278.278,0,0,1,.2.084.278.278,0,0,1,.084.2v6.624q0,.1.048.108t.1-.06l3.6-6.744a.388.388,0,0,1,.36-.216h2.376q.168,0,.216.1a.265.265,0,0,1-.024.24l-3.6,6.744a.656.656,0,0,0-.024.144l3.888,9.24a.334.334,0,0,1,.024.144q0,.192-.24.192H29.52a.314.314,0,0,1-.336-.216L26.352-7.152q-.024-.072-.072-.06a.212.212,0,0,0-.1.06l-.96,1.608a.368.368,0,0,0-.048.144V-.288a.278.278,0,0,1-.084.2.278.278,0,0,1-.2.084Zm15.6.192a4.286,4.286,0,0,1-3.3-1.332,4.963,4.963,0,0,1-1.236-3.516V-16.512a.278.278,0,0,1,.084-.2.278.278,0,0,1,.2-.084H36.24a.278.278,0,0,1,.2.084.278.278,0,0,1,.084.2V-4.368a2.421,2.421,0,0,0,.48,1.56,1.548,1.548,0,0,0,1.272.6,1.548,1.548,0,0,0,1.272-.6,2.421,2.421,0,0,0,.48-1.56V-16.512a.278.278,0,0,1,.084-.2.278.278,0,0,1,.2-.084h2.208a.278.278,0,0,1,.2.084.278.278,0,0,1,.084.2V-4.656A4.934,4.934,0,0,1,41.568-1.14,4.3,4.3,0,0,1,38.28.192Zm15.96-4.8A4.436,4.436,0,0,1,52.956-1.2,4.706,4.706,0,0,1,49.608,0H45.384a.278.278,0,0,1-.2-.084.278.278,0,0,1-.084-.2V-16.512a.278.278,0,0,1,.084-.2.278.278,0,0,1,.2-.084h3.792a5.194,5.194,0,0,1,3.576,1.152,4.26,4.26,0,0,1,1.3,3.36A3.791,3.791,0,0,1,52.3-8.76q-.12.072-.048.144a4.174,4.174,0,0,1,1.464,1.608A5.109,5.109,0,0,1,54.24-4.608ZM48-14.4a.106.106,0,0,0-.12.12v4.464A.106.106,0,0,0,48-9.7h1.224a1.983,1.983,0,0,0,1.536-.6,2.426,2.426,0,0,0,.552-1.7,2.6,2.6,0,0,0-.552-1.776,1.944,1.944,0,0,0-1.536-.624ZM49.392-2.424A1.851,1.851,0,0,0,50.9-3.1a2.911,2.911,0,0,0,.552-1.9A3.107,3.107,0,0,0,50.9-6.948a1.813,1.813,0,0,0-1.512-.708H48a.106.106,0,0,0-.12.12v4.992a.106.106,0,0,0,.12.12ZM60.48.192a4.518,4.518,0,0,1-3.324-1.248A4.453,4.453,0,0,1,55.9-4.368v-8.064a4.453,4.453,0,0,1,1.26-3.312,4.518,4.518,0,0,1,3.324-1.248,4.559,4.559,0,0,1,3.336,1.248,4.43,4.43,0,0,1,1.272,3.312v8.064a4.43,4.43,0,0,1-1.272,3.312A4.559,4.559,0,0,1,60.48.192Zm0-2.4a1.686,1.686,0,0,0,1.32-.564,2.132,2.132,0,0,0,.5-1.476v-8.3a2.132,2.132,0,0,0-.5-1.476,1.686,1.686,0,0,0-1.32-.564,1.65,1.65,0,0,0-1.308.564,2.164,2.164,0,0,0-.492,1.476v8.3a2.164,2.164,0,0,0,.492,1.476A1.65,1.65,0,0,0,60.48-2.208ZM66.792,0q-.168,0-.216-.1a.309.309,0,0,1,0-.24l3.288-7.992a.222.222,0,0,0,0-.144l-3.288-7.992a.334.334,0,0,1-.024-.144q0-.192.24-.192h2.28a.3.3,0,0,1,.312.24l1.92,5.208q.024.072.072.072t.072-.072l1.9-5.208a.3.3,0,0,1,.312-.24h2.256q.168,0,.216.1a.309.309,0,0,1,0,.24L72.84-8.472a.222.222,0,0,0,0,.144L76.128-.336a.334.334,0,0,1,.024.144q0,.192-.24.192H73.68a.316.316,0,0,1-.336-.24l-1.9-5.184q-.024-.072-.072-.072t-.072.072L69.384-.24a.316.316,0,0,1-.336.24Z" transform="translate(-1.296 16.992)" fill="#f09937"/>
</svg>
