<svg id="default_user" xmlns="http://www.w3.org/2000/svg" width="25.89" height="25.891" viewBox="0 0 25.89 25.891">
  <path id="Path_4" data-name="Path 4" d="M13.92,24.391,10.057,26.5a3.471,3.471,0,0,0-.62.441,12.937,12.937,0,0,0,16.623.043,3.427,3.427,0,0,0-.681-.456l-4.136-2.068a1.577,1.577,0,0,1-.872-1.411V21.424a6.247,6.247,0,0,0,.391-.5,9.517,9.517,0,0,0,1.286-2.591,1.3,1.3,0,0,0,.921-1.236V15.362a1.293,1.293,0,0,0-.433-.96V11.9S23.05,8,17.773,8s-4.763,3.9-4.763,3.9v2.5a1.291,1.291,0,0,0-.433.96v1.732a1.3,1.3,0,0,0,.6,1.09,8.6,8.6,0,0,0,1.566,3.24v1.583A1.579,1.579,0,0,1,13.92,24.391Z" transform="translate(-4.827 -4.092)" fill="#c0ced9"/>
  <g id="Group_11" data-name="Group 11">
    <path id="Path_5" data-name="Path 5" d="M13.167,0A12.937,12.937,0,0,0,4.616,22.843a3.44,3.44,0,0,1,.614-.437L9.092,20.3a1.578,1.578,0,0,0,.822-1.385V17.332a8.588,8.588,0,0,1-1.566-3.24,1.3,1.3,0,0,1-.6-1.09V11.269a1.293,1.293,0,0,1,.433-.96v-2.5s-.514-3.9,4.763-3.9,4.763,3.9,4.763,3.9v2.5a1.291,1.291,0,0,1,.433.96V13a1.3,1.3,0,0,1-.921,1.236,9.517,9.517,0,0,1-1.286,2.591,6.248,6.248,0,0,1-.391.5v1.623a1.577,1.577,0,0,0,.872,1.411l4.136,2.068a3.444,3.444,0,0,1,.679.455A12.943,12.943,0,0,0,13.167,0Z" transform="translate(0 0)" fill="#e1edf5"/>
  </g>
</svg>
