<svg xmlns="http://www.w3.org/2000/svg" xmlns:xlink="http://www.w3.org/1999/xlink" width="24" height="24" viewBox="0 0 24 24">
  <defs>
    <clipPath id="clip-path">
      <rect id="Rectangle_39" data-name="Rectangle 39" width="24" height="24" transform="translate(3938 -49)" fill="#fff"/>
    </clipPath>
  </defs>
  <g id="ic_3_dots" transform="translate(-3938 49)" clip-path="url(#clip-path)">
    <path id="ic_dots_menu" d="M-4013.374,64.665a1.965,1.965,0,0,1,2-2,1.964,1.964,0,0,1,2,2,1.964,1.964,0,0,1-2,2A1.965,1.965,0,0,1-4013.374,64.665Zm0-8.114a1.965,1.965,0,0,1,2-2,1.964,1.964,0,0,1,2,2,1.964,1.964,0,0,1-2,2A1.965,1.965,0,0,1-4013.374,56.551Zm0-8.114a1.965,1.965,0,0,1,2-2,1.964,1.964,0,0,1,2,2,1.964,1.964,0,0,1-2,2A1.965,1.965,0,0,1-4013.374,48.436Z" transform="translate(7961.374 -93.551)" fill="#a0a4b7" stroke="#a0a4b7" stroke-width="0.5"/>
  </g>
</svg>
