<svg id="ic_cloud" xmlns="http://www.w3.org/2000/svg" width="33.732" height="22.562" viewBox="0 0 33.732 22.562">
  <path id="Path_14" data-name="Path 14" d="M28.989,11.658a11.295,11.295,0,0,0-21.615.8,7.062,7.062,0,1,0-.367,14.118h7.059V23.758H7.006a4.236,4.236,0,1,1,0-8.471,4.377,4.377,0,0,1,1.115.169l1.581.438.2-1.624a8.471,8.471,0,0,1,16.575-1.158l.212.762.762.226a4.885,4.885,0,0,1,3.558,4.716,4.941,4.941,0,0,1-4.941,4.941h-3.53v2.824h3.53a7.737,7.737,0,0,0,2.923-14.923Z" transform="translate(-0.128 -4.02)" fill="#a0a4b7"/>
  <path id="Path_15" data-name="Path 15" d="M19.766,16.814,14.528,11.59,9.29,16.814l2,2,1.821-1.835v6.48H15.94v-6.48l1.821,1.835Z" transform="translate(3.645 -0.902)" fill="#a0a4b7"/>
</svg>
