<svg xmlns="http://www.w3.org/2000/svg" width="14.654" height="13.957" viewBox="0 0 14.654 13.957">
  <path id="ic_grid" d="M55.456,47.676h-2.2a2.148,2.148,0,0,0-2.2,2.093v2.093a2.148,2.148,0,0,0,2.2,2.093h2.2a2.148,2.148,0,0,0,2.2-2.093V49.769a2.148,2.148,0,0,0-2.2-2.093m-8.06,0H45.2A2.148,2.148,0,0,0,43,49.769v2.093a2.148,2.148,0,0,0,2.2,2.093h2.2a2.148,2.148,0,0,0,2.2-2.093V49.769a2.148,2.148,0,0,0-2.2-2.093M55.456,40h-2.2a2.148,2.148,0,0,0-2.2,2.093v2.093a2.148,2.148,0,0,0,2.2,2.093h2.2a2.148,2.148,0,0,0,2.2-2.093V42.093A2.148,2.148,0,0,0,55.456,40m-5.862,2.093v2.093a2.148,2.148,0,0,1-2.2,2.093H45.2A2.148,2.148,0,0,1,43,44.187V42.093A2.148,2.148,0,0,1,45.2,40h2.2a2.148,2.148,0,0,1,2.2,2.093" transform="translate(-43 -39.999)" fill="#cdd1e2" fill-rule="evenodd"/>
</svg>
