<svg xmlns="http://www.w3.org/2000/svg" width="13" height="12" viewBox="0 0 13 12">
  <path id="ic_list" d="M3831.866-739a.862.862,0,0,1-.867-.857.862.862,0,0,1,.867-.857h11.267a.861.861,0,0,1,.866.857.862.862,0,0,1-.866.857Zm0-5.143A.862.862,0,0,1,3831-745a.862.862,0,0,1,.867-.857h11.267A.862.862,0,0,1,3844-745a.862.862,0,0,1-.866.858Zm0-5.144a.862.862,0,0,1-.867-.857.862.862,0,0,1,.867-.857h11.267a.862.862,0,0,1,.866.857.862.862,0,0,1-.866.857Z" transform="translate(-3830.999 751)" fill="#6f789d"/>
</svg>
