<svg id="ic_reject" xmlns="http://www.w3.org/2000/svg" width="24" height="24" viewBox="0 0 24 24">
  <g id="Rectangle_20" data-name="Rectangle 20" fill="none" stroke="#d9dbe3" stroke-width="1">
    <rect width="24" height="24" rx="5" stroke="none"/>
    <rect x="0.5" y="0.5" width="23" height="23" rx="4.5" fill="none"/>
  </g>
  <g id="_8563601801543238914_1_" data-name="8563601801543238914 (1)" transform="translate(12 4.068) rotate(45)">
    <path id="Line_6" data-name="Line 6" d="M.7,11.218a.7.7,0,0,1-.7-.7V.7A.7.7,0,0,1,1.4.7v9.815A.7.7,0,0,1,.7,11.218Z" transform="translate(4.908 0)" fill="#a0a4b7"/>
    <path id="Line_7" data-name="Line 7" d="M10.517,1.4H.7A.7.7,0,0,1,.7,0h9.815a.7.7,0,0,1,0,1.4Z" transform="translate(0 4.908)" fill="#a0a4b7"/>
  </g>
</svg>
